<svg viewBox="0 0 800 400" xmlns="http://www.w3.org/2000/svg">
  <!-- Círculo exterior -->
  <circle cx="200" cy="200" r="180" fill="none" stroke="#000000" stroke-width="12" stroke-opacity="0.8" />

  <!-- Ondas estáticas -->
  <path d="M 200,65 A 135,135 0 0 0 65,200 A 5,5 0 0 0 75,200 A 125,125 0 0 1 200,75 A 125,125 0 0 1 325,200 A 5,5 0 0 0 335,200 A 135,135 0 0 0 200,65 Z" 
        fill="#000000" 
        opacity="0.5" />

  <path d="M 200,110 A 90,90 0 0 0 110,200 A 5,5 0 0 0 120,200 A 80,80 0 0 1 200,120 A 80,80 0 0 1 280,200 A 5,5 0 0 0 290,200 A 90,90 0 0 0 200,110 Z" 
        fill="#000000" 
        opacity="0.7" />

  <path d="M 200,155 A 45,45 0 0 0 155,200 A 5,5 0 0 0 165,200 A 35,35 0 0 1 200,165 A 35,35 0 0 1 235,200 A 5,5 0 0 0 245,200 A 45,45 0 0 0 200,155 Z" 
        fill="#000000" 
        opacity="0.9" />

  <!-- Punto central -->
  <circle cx="200" cy="200" r="18" fill="#000000" />

  <!-- Texto -->
  <text x="400" y="180" 
        font-family="Montserrat, sans-serif" 
        font-weight="900"
        font-style="normal"
        font-size="52" 
        fill="#000000" 
        letter-spacing="2">RASTREO</text>
  
  <text x="400" y="240" 
        font-family="Montserrat, sans-serif" 
        font-weight="900"
        font-style="normal"
        font-size="52" 
        fill="#000000" 
        letter-spacing="2">INDUSTRIAL</text>
</svg>