<svg viewBox="0 0 800 400" xmlns="http://www.w3.org/2000/svg">
  <defs>
    <linearGradient id="circleGradient" x1="0%" y1="0%" x2="100%" y2="100%">
      <stop offset="0%" stop-color="#3A1C71" />
      <stop offset="50%" stop-color="#0277BD" />
      <stop offset="100%" stop-color="#00B0FF" />
    </linearGradient>
    
    <linearGradient id="waveGradient" x1="0%" y1="0%" x2="100%" y2="100%">
      <stop offset="0%" stop-color="#3A1C71" />
      <stop offset="60%" stop-color="#0277BD" />
      <stop offset="100%" stop-color="#00B0FF" />
    </linearGradient>
    
    <filter id="dropShadow" x="-20%" y="-20%" width="140%" height="140%">
      <feGaussianBlur in="SourceAlpha" stdDeviation="3"/>
      <feOffset dx="2" dy="2"/>
      <feComponentTransfer>
        <feFuncA type="linear" slope="0.3"/>
      </feComponentTransfer>
      <feMerge>
        <feMergeNode/>
        <feMergeNode in="SourceGraphic"/>
      </feMerge>
    </filter>
  </defs>

  <!-- Círculo exterior -->
  <circle cx="200" cy="200" r="180" fill="none" stroke="url(#circleGradient)" stroke-width="12" 
          stroke-opacity="0.8" filter="dropShadow" />

  <!-- Ondas estáticas -->
  <path d="M 200,65 A 135,135 0 0 0 65,200 A 5,5 0 0 0 75,200 A 125,125 0 0 1 200,75 A 125,125 0 0 1 325,200 A 5,5 0 0 0 335,200 A 135,135 0 0 0 200,65 Z" 
        fill="url(#waveGradient)" 
        opacity="0.5" 
        filter="dropShadow" />

  <path d="M 200,110 A 90,90 0 0 0 110,200 A 5,5 0 0 0 120,200 A 80,80 0 0 1 200,120 A 80,80 0 0 1 280,200 A 5,5 0 0 0 290,200 A 90,90 0 0 0 200,110 Z" 
        fill="url(#waveGradient)" 
        opacity="0.7" 
        filter="dropShadow" />

  <path d="M 200,155 A 45,45 0 0 0 155,200 A 5,5 0 0 0 165,200 A 35,35 0 0 1 200,165 A 35,35 0 0 1 235,200 A 5,5 0 0 0 245,200 A 45,45 0 0 0 200,155 Z" 
        fill="url(#waveGradient)" 
        opacity="0.9" 
        filter="dropShadow" />

  <!-- Punto central -->
  <circle cx="200" cy="200" r="18" fill="#FF9E80" filter="dropShadow" />

  <!-- Texto -->
  <text x="400" y="180" 
        font-family="Montserrat, sans-serif" 
        font-weight="900"
        font-style="normal"
        font-size="52" 
        fill="#3A1C71" 
        letter-spacing="2"
        filter="dropShadow">RASTREO</text>
  
  <text x="400" y="240" 
        font-family="Montserrat, sans-serif" 
        font-weight="900"
        font-style="normal"
        font-size="52" 
        fill="#0277BD" 
        letter-spacing="2"
        filter="dropShadow">INDUSTRIAL</text>
</svg>