<svg viewBox="0 0 400 400" xmlns="http://www.w3.org/2000/svg">
  <defs>
    <linearGradient id="circleGradient" x1="0%" y1="0%" x2="100%" y2="100%">
      <stop offset="0%" stop-color="#3A1C71" />
      <stop offset="50%" stop-color="#0277BD">
        <animate attributeName="offset" values="0.5;0.6;0.5" dur="3s" repeatCount="indefinite"/>
      </stop>
      <stop offset="100%" stop-color="#00B0FF" />
    </linearGradient>
    
    <linearGradient id="waveGradient" x1="0%" y1="0%" x2="100%" y2="100%">
      <stop offset="0%" stop-color="#3A1C71" />
      <stop offset="60%" stop-color="#0277BD" />
      <stop offset="100%" stop-color="#00B0FF" />
    </linearGradient>
    
    <filter id="dropShadow" x="-20%" y="-20%" width="140%" height="140%">
      <feGaussianBlur in="SourceAlpha" stdDeviation="3"/>
      <feOffset dx="2" dy="2"/>
      <feComponentTransfer>
        <feFuncA type="linear" slope="0.3"/>
      </feComponentTransfer>
      <feMerge>
        <feMergeNode/>
        <feMergeNode in="SourceGraphic"/>
      </feMerge>
    </filter>
  </defs>

  <!-- Círculo exterior -->
  <circle cx="200" cy="200" r="180" fill="none" stroke="url(#circleGradient)" stroke-width="12" 
          stroke-opacity="0.8" filter="dropShadow">
    <animate attributeName="stroke-dasharray" 
             values="0,1130;565,565;1130,0" 
             dur="3s" 
             repeatCount="1"/>
  </circle>

  <!-- Grupo de ondas con animación -->
  <g transform="translate(200 200)">
    <!-- Onda grande (radio 135) -->
    <path d="M 0,-135 A 135,135 0 0 0 -135,0 A 5,5 0 0 0 -125,0 A 125,125 0 0 1 0,-125 A 125,125 0 0 1 125,0 A 5,5 0 0 0 135,0 A 135,135 0 0 0 0,-135 Z" 
          fill="url(#waveGradient)" 
          opacity="0.5" 
          filter="dropShadow">
      <animateTransform attributeName="transform"
                        type="rotate"
                        from="0"
                        to="360"
                        dur="15s"
                        repeatCount="indefinite"/>
    </path>

    <!-- Onda mediana (radio 90) -->
    <path d="M 0,-90 A 90,90 0 0 0 -90,0 A 5,5 0 0 0 -80,0 A 80,80 0 0 1 0,-80 A 80,80 0 0 1 80,0 A 5,5 0 0 0 90,0 A 90,90 0 0 0 0,-90 Z" 
          fill="url(#waveGradient)" 
          opacity="0.7" 
          filter="dropShadow">
      <animateTransform attributeName="transform"
                        type="rotate"
                        from="360"
                        to="0"
                        dur="10s"
                        repeatCount="indefinite"/>
    </path>

    <!-- Onda pequeña (radio 45) -->
    <path d="M 0,-45 A 45,45 0 0 0 -45,0 A 5,5 0 0 0 -35,0 A 35,35 0 0 1 0,-35 A 35,35 0 0 1 35,0 A 5,5 0 0 0 45,0 A 45,45 0 0 0 0,-45 Z" 
          fill="url(#waveGradient)" 
          opacity="0.9" 
          filter="dropShadow">
      <animateTransform attributeName="transform"
                        type="rotate"
                        from="0"
                        to="360"
                        dur="7s"
                        repeatCount="indefinite"/>
    </path>
  </g>

  <!-- Punto central con animación de pulso -->
  <circle cx="200" cy="200" r="18" fill="#FF9E80" filter="dropShadow">
    <animate attributeName="r"
             values="18;20;18"
             dur="2s"
             repeatCount="indefinite"/>
  </circle>
</svg>